<svg xmlns="http://www.w3.org/2000/svg" version="1.0" preserveAspectRatio="xMidYMid meet" viewBox="298.5 164.1 720.34 730.6">
<metadata>
Created by potrace 1.16, written by Peter Selinger 2001-2019
</metadata>
<g transform="translate(0.000000,1024.000000) scale(0.100000,-0.100000)" fill="#000000" stroke="none">
<path d="M6840 8579 c-30 -9 -172 -52 -315 -94 -143 -42 -390 -119 -550 -172 -272 -89 -296 -99 -385 -158 -136 -90 -206 -158 -390 -382 -284 -344 -471 -563 -965 -1132 -529 -610 -600 -695 -686 -823 -261 -387 -422 -767 -508 -1195 -52 -265 -56 -307 -56 -648 0 -281 2 -328 19 -389 46 -172 121 -300 240 -413 92 -88 189 -146 308 -185 80 -26 112 -31 228 -35 125 -4 143 -3 247 25 l112 29 65 -77 c134 -158 351 -349 536 -470 519 -340 1215 -383 1775 -110 78 38 195 111 273 170 30 22 35 23 45 9 49 -64 1050 -1239 1053 -1236 3 2 -166 356 -376 786 -209 429 -380 785 -380 791 0 6 11 27 24 48 56 90 165 336 153 348 -1 2 -75 -38 -162 -88 -380 -216 -734 -360 -1040 -422 -276 -56 -326 -61 -600 -61 -172 0 -285 4 -335 13 -186 33 -400 98 -536 161 -92 43 -295 163 -312 184 -9 11 5 18 71 37 143 41 419 137 538 188 184 80 252 112 247 117 -2 3 -58 14 -124 25 -241 40 -411 52 -824 59 -381 6 -408 8 -451 27 -58 27 -114 76 -144 128 -40 69 -48 146 -42 374 14 546 164 1101 419 1557 34 60 159 259 279 440 582 882 691 1047 928 1400 152 226 281 406 319 447 81 86 193 170 257 193 96 34 731 288 916 366 l186 78 224 -34 c123 -19 271 -39 329 -45 174 -18 241 -44 289 -110 15 -21 63 -117 106 -212 42 -95 122 -261 178 -369 l100 -195 -125 -165 c-138 -182 -228 -310 -228 -325 0 -8 -147 -9 -211 -1 -13 1 10 42 87 157 57 85 131 208 165 273 33 65 67 121 76 124 8 3 12 12 9 20 -8 21 -276 392 -289 400 -6 4 -8 0 -5 -8 3 -8 41 -101 83 -208 52 -128 75 -198 69 -206 -5 -7 -44 -57 -87 -111 -91 -116 -194 -265 -262 -381 -28 -48 -55 -83 -64 -83 -9 0 -51 18 -94 41 l-78 41 21 26 c119 153 318 488 306 517 -2 7 -58 84 -123 172 -65 87 -126 169 -136 182 -9 14 -19 23 -21 20 -2 -2 28 -90 68 -195 l72 -190 -59 -65 c-58 -63 -174 -230 -236 -340 l-31 -56 -85 44 c-58 30 -83 48 -78 56 5 7 36 54 70 104 62 94 121 225 125 283 3 27 -15 55 -117 185 -161 206 -169 206 -75 -8 33 -76 60 -141 60 -146 0 -5 -21 -33 -46 -63 -47 -55 -113 -160 -154 -246 l-24 -49 -180 88 c-159 79 -237 105 -236 82 1 -10 241 -185 650 -473 173 -122 323 -229 332 -238 33 -28 260 6 442 68 l86 29 0 -92 0 -92 -270 -90 -270 -90 -487 278 c-269 153 -527 298 -575 322 l-87 45 -44 -73 c-879 -1443 -881 -1446 -875 -1453 2 -2 89 93 193 211 104 118 189 214 191 212 1 -1 -2 -40 -6 -87 -16 -161 -12 -330 10 -415 11 -43 20 -79 20 -80 0 -1 -39 -33 -86 -71 -197 -157 -361 -389 -436 -614 -31 -92 -65 -260 -52 -260 2 0 73 69 157 153 239 240 397 357 642 477 167 81 250 112 409 151 185 45 326 61 551 61 224 1 320 -12 586 -79 l147 -37 -29 -63 c-66 -147 -102 -332 -97 -503 l3 -104 74 129 c133 237 228 362 388 515 372 358 832 551 1313 551 292 1 531 -46 833 -165 64 -25 130 -52 147 -61 18 -9 34 -14 37 -12 15 16 -98 175 -184 259 -345 335 -917 457 -1463 312 -377 -101 -736 -376 -936 -717 l-37 -62 -74 72 c-178 174 -436 302 -702 347 -186 32 -488 17 -686 -34 -59 -15 -198 -64 -265 -94 -13 -5 -16 6 -18 74 -3 90 -53 376 -81 462 l-19 57 240 275 c132 152 244 276 249 276 5 0 239 -115 519 -255 280 -140 519 -255 531 -255 34 0 453 105 660 165 105 30 192 55 195 55 2 0 4 101 4 225 l0 225 64 82 c108 141 336 458 336 468 0 12 -292 498 -385 640 -94 145 -206 283 -257 317 -91 61 -140 72 -373 83 -130 7 -237 19 -382 44 -111 20 -208 35 -215 35 -7 -1 -38 -10 -68 -20z"/>
<path d="M7950 4247 c0 -2 -18 -93 -40 -202 -22 -109 -39 -199 -37 -200 1 -2 49 -10 107 -20 220 -36 491 -151 689 -293 187 -133 394 -355 548 -585 36 -54 68 -96 70 -93 8 8 -65 191 -128 321 -208 427 -531 765 -914 958 -98 48 -295 125 -295 114z"/>
<path d="M7026 3954 c-101 -122 -373 -232 -686 -278 -276 -40 -571 -25 -797 43 -63 19 -32 -7 40 -32 334 -121 784 -156 1115 -87 121 25 292 83 362 122 75 41 160 106 160 121 0 14 -144 147 -157 146 -4 0 -21 -16 -37 -35z"/>
</g>
</svg>